<?xml version="1.0" encoding="UTF-8" standalone="no"?>
<!DOCTYPE svg PUBLIC "-//W3C//DTD SVG 1.1//EN" "http://www.w3.org/Graphics/SVG/1.1/DTD/svg11.dtd">
<svg width="100%" height="100%" viewBox="0 0 772 996" version="1.1" xmlns="http://www.w3.org/2000/svg" xmlns:xlink="http://www.w3.org/1999/xlink" xml:space="preserve" xmlns:serif="http://www.serif.com/" style="fill-rule:evenodd;clip-rule:evenodd;stroke-linejoin:round;stroke-miterlimit:2;">
    <g id="rewrite">
        <path id="outer-shape" d="M113,253l73,88c0,0 88.015,-189.489 221,-340.999c167.052,201.149 365,486.48 365,649.946c0,213.8 -203.281,346.057 -382,346.014c-208.668,-0.049 -389.974,-171.513 -390,-378.014c-0.008,-67.455 28.404,-223.719 113,-364.947Z" style="fill:url(#_Linear1);"/>
        <path id="inner-shape" d="M396,212c0,0 -257.515,291.946 -260,437c-2.666,155.638 124.681,237 257,237c116.121,0 257.194,-88.018 257,-229c-0.228,-166.117 -254,-445 -254,-445Z" style="fill:rgb(255,151,88);"/>
    </g>
    <defs>
        <linearGradient id="_Linear1" x1="0" y1="0" x2="1" y2="0" gradientUnits="userSpaceOnUse" gradientTransform="matrix(-14.0205,995.999,-1284.94,-18.0879,407,0.00099564)"><stop offset="0" style="stop-color:rgb(255,136,74);stop-opacity:1"/><stop offset="1" style="stop-color:rgb(255,48,0);stop-opacity:1"/></linearGradient>
    </defs>
</svg>
